<?xml version="1.0" encoding="utf-8"?>
<!-- Generator: Adobe Illustrator 16.0.0, SVG Export Plug-In . SVG Version: 6.00 Build 0)  -->
<!DOCTYPE svg PUBLIC "-//W3C//DTD SVG 1.1//EN" "http://www.w3.org/Graphics/SVG/1.1/DTD/svg11.dtd">
<svg version="1.1" id="Layer_1" xmlns="http://www.w3.org/2000/svg" xmlns:xlink="http://www.w3.org/1999/xlink" x="0px" y="0px"
	 width="100px" height="100px" viewBox="0 0 100 100" enable-background="new 0 0 100 100" xml:space="preserve">
<g>
	<path fill="#1B1B1B" d="M49.062,21.623l-16.52,18.176l-9.762-8.346l-4.005,1.607l10.012,11.252L18.775,55.316l4.067,1.607
		l9.824-8.408l16.332,18.176l9.949-4.637v-35.61L49.062,21.623z M48.999,53.647l-11.264-9.459l11.264-9.459V53.647z"/>
	<polygon fill="#1B1B1B" points="67.771,10 67.771,78.748 14.5,69.887 67.771,90 85.5,81.798 85.5,18.16 	"/>
</g>
<path fill="#1B1B1B" d="M89.6,99.995H10.4c-5.732,0-10.396-4.663-10.396-10.396V10.4c0-5.732,4.663-10.396,10.396-10.396H89.6
	c5.732,0,10.396,4.663,10.396,10.396V89.6C99.995,95.332,95.332,99.995,89.6,99.995z M10.4,0.995c-5.187,0-9.405,4.219-9.405,9.405
	V89.6c0,5.187,4.219,9.406,9.405,9.406H89.6c5.187,0,9.406-4.22,9.406-9.406V10.4c0-5.187-4.22-9.405-9.406-9.405H10.4z"/>
</svg>
