<?xml version="1.0" encoding="utf-8"?>
<!-- Generator: Adobe Illustrator 16.0.0, SVG Export Plug-In . SVG Version: 6.00 Build 0)  -->
<!DOCTYPE svg PUBLIC "-//W3C//DTD SVG 1.1//EN" "http://www.w3.org/Graphics/SVG/1.1/DTD/svg11.dtd">
<svg version="1.1" id="Layer_1" xmlns="http://www.w3.org/2000/svg" xmlns:xlink="http://www.w3.org/1999/xlink" x="0px" y="0px"
	 width="100px" height="100px" viewBox="0 0 100 100" enable-background="new 0 0 100 100" xml:space="preserve">
<g>
	<path fill="#1B1B1B" d="M89.604,100H10.396C4.663,100,0,95.337,0,89.604V10.396C0,4.664,4.663,0,10.396,0h79.208
		C95.337,0,100,4.664,100,10.396v79.207C100,95.337,95.337,100,89.604,100z M10.792,1.48c-5.135,0-9.312,4.177-9.312,9.313v78.415
		c0,5.135,4.177,9.313,9.312,9.313h78.416c5.135,0,9.313-4.178,9.313-9.313V10.793c0-5.135-4.178-9.313-9.313-9.313H10.792z"/>
</g>
<g>
	<path fill="#1B1B1B" d="M30.011,65c-1.754,0-3.38-0.327-4.884-0.979c-1.502-0.654-2.83-1.62-3.981-2.898
		c-1.152-1.28-2.049-2.845-2.687-4.7c-0.639-1.854-0.958-3.967-0.958-6.345c0-2.375,0.331-4.49,0.995-6.344
		c0.664-1.854,1.578-3.434,2.744-4.739c1.164-1.305,2.517-2.297,4.058-2.978C26.836,35.34,28.483,35,30.236,35
		c1.754,0,3.306,0.372,4.66,1.116c1.353,0.744,2.467,1.599,3.342,2.565l-2.628,3.291c-0.727-0.731-1.516-1.333-2.368-1.802
		c-0.852-0.47-1.83-0.705-2.931-0.705c-1.479,0-2.806,0.424-3.983,1.273c-1.178,0.849-2.091,2.049-2.742,3.603
		c-0.653,1.554-0.978,3.415-0.978,5.581c0,2.193,0.313,4.081,0.94,5.658c0.625,1.581,1.507,2.795,2.648,3.643
		c1.14,0.851,2.473,1.272,4.001,1.272c1.227,0,2.33-0.273,3.306-0.822c0.977-0.549,1.854-1.265,2.63-2.152l2.631,3.251
		c-1.126,1.384-2.417,2.434-3.87,3.15C33.442,64.642,31.815,65,30.011,65z"/>
	<path fill="#1B1B1B" d="M50.263,65c-1.904,0-3.72-0.372-5.447-1.115c-1.729-0.746-3.246-1.783-4.548-3.113l2.855-3.565
		c1.002,0.993,2.137,1.789,3.4,2.391c1.265,0.599,2.536,0.898,3.815,0.898c1.577,0,2.772-0.337,3.588-1.017
		c0.813-0.68,1.22-1.567,1.22-2.662c0-0.811-0.188-1.463-0.563-1.96c-0.376-0.495-0.883-0.921-1.521-1.273s-1.369-0.71-2.198-1.076
		l-3.794-1.685c-0.902-0.393-1.786-0.914-2.65-1.566c-0.863-0.651-1.578-1.481-2.141-2.487c-0.564-1.005-0.846-2.199-0.846-3.583
		c0-1.567,0.401-2.963,1.202-4.191c0.802-1.228,1.91-2.199,3.326-2.917C47.375,35.358,48.985,35,50.789,35
		c1.627,0,3.193,0.327,4.695,0.979c1.503,0.652,2.793,1.553,3.87,2.702L56.8,41.972c-0.877-0.784-1.797-1.397-2.76-1.842
		c-0.968-0.442-2.05-0.665-3.251-0.665c-1.302,0-2.342,0.299-3.119,0.899c-0.777,0.602-1.165,1.423-1.165,2.469
		c0,0.757,0.206,1.384,0.62,1.879c0.413,0.496,0.951,0.908,1.616,1.234c0.664,0.327,1.384,0.659,2.161,1l3.721,1.604
		c1.101,0.47,2.07,1.052,2.912,1.742c0.838,0.693,1.494,1.528,1.972,2.509c0.475,0.978,0.714,2.173,0.714,3.582
		c0,1.565-0.394,3.002-1.185,4.309c-0.788,1.307-1.928,2.35-3.42,3.133C54.126,64.609,52.342,65,50.263,65z"/>
	<path fill="#1B1B1B" d="M72.543,65c-1.904,0-3.719-0.372-5.448-1.115c-1.729-0.746-3.244-1.783-4.545-3.113l2.855-3.565
		c0.999,0.993,2.134,1.789,3.398,2.391c1.266,0.599,2.536,0.898,3.813,0.898c1.579,0,2.774-0.337,3.59-1.017
		c0.813-0.68,1.22-1.567,1.22-2.662c0-0.811-0.188-1.463-0.563-1.96c-0.376-0.495-0.883-0.921-1.522-1.273
		c-0.638-0.353-1.368-0.71-2.195-1.076l-3.796-1.685c-0.9-0.393-1.784-0.914-2.649-1.566c-0.865-0.651-1.579-1.481-2.143-2.487
		c-0.564-1.005-0.844-2.199-0.844-3.583c0-1.567,0.399-2.963,1.201-4.191c0.804-1.228,1.91-2.199,3.325-2.917
		C69.657,35.358,71.265,35,73.067,35c1.629,0,3.195,0.327,4.697,0.979c1.503,0.652,2.793,1.553,3.87,2.702l-2.555,3.291
		c-0.877-0.784-1.797-1.397-2.76-1.842c-0.968-0.442-2.05-0.665-3.253-0.665c-1.301,0-2.339,0.299-3.118,0.899
		c-0.775,0.602-1.164,1.423-1.164,2.469c0,0.757,0.206,1.384,0.622,1.879c0.411,0.496,0.95,0.908,1.613,1.234
		c0.666,0.327,1.384,0.659,2.161,1l3.721,1.604c1.101,0.47,2.07,1.052,2.912,1.742c0.838,0.693,1.494,1.528,1.972,2.509
		c0.475,0.978,0.714,2.173,0.714,3.582c0,1.565-0.394,3.002-1.185,4.309c-0.788,1.307-1.928,2.35-3.42,3.133
		C76.406,64.609,74.622,65,72.543,65z"/>
</g>
</svg>
