<?xml version="1.0" encoding="utf-8"?>
<!-- Generator: Adobe Illustrator 16.0.0, SVG Export Plug-In . SVG Version: 6.00 Build 0)  -->
<!DOCTYPE svg PUBLIC "-//W3C//DTD SVG 1.1//EN" "http://www.w3.org/Graphics/SVG/1.1/DTD/svg11.dtd">
<svg version="1.1" id="Layer_1" xmlns="http://www.w3.org/2000/svg" xmlns:xlink="http://www.w3.org/1999/xlink" x="0px" y="0px"
	 width="100px" height="100px" viewBox="0 0 100 100" enable-background="new 0 0 100 100" xml:space="preserve">
<path fill="#1B1B1B" d="M89.604,100H10.396C4.663,100,0,95.337,0,89.604V10.397C0,4.664,4.663,0,10.396,0h79.207
	C95.337,0,100,4.664,100,10.397v79.207C100,95.337,95.337,100,89.604,100z M10.396,0.99c-5.187,0-9.406,4.22-9.406,9.407v79.207
	c0,5.188,4.22,9.407,9.406,9.407h79.207c5.188,0,9.407-4.22,9.407-9.407V10.397c0-5.187-4.22-9.407-9.407-9.407H10.396z"/>
<g>
	<path fill="#1B1B1B" d="M20,71.663V27.5h13.966c3.316,0,6.254,0.428,8.812,1.285c2.556,0.857,4.585,2.281,6.084,4.273
		s2.248,4.681,2.248,8.067c0,3.267-0.741,5.967-2.219,8.098c-1.478,2.132-3.497,3.705-6.054,4.721
		c-2.558,1.017-5.435,1.524-8.631,1.524h-6.295v16.194H20z M27.911,49.193h5.695c3.276,0,5.714-0.667,7.313-2.002
		c1.598-1.334,2.398-3.356,2.398-6.066c0-2.709-0.84-4.602-2.518-5.677c-1.678-1.076-4.176-1.614-7.493-1.614h-5.395V49.193z"/>
	<path fill="#1B1B1B" d="M67.113,72.5c-2.278,0-4.537-0.438-6.773-1.315c-2.238-0.875-4.177-1.99-5.815-3.346l3.598-5.02
		c1.478,1.156,2.956,2.071,4.435,2.748c1.479,0.679,3.058,1.017,4.736,1.017c1.798,0,3.137-0.378,4.017-1.136
		c0.878-0.757,1.317-1.712,1.317-2.868c0-0.916-0.35-1.684-1.049-2.301c-0.699-0.618-1.599-1.165-2.697-1.644
		c-1.1-0.479-2.229-0.936-3.387-1.375c-1.438-0.557-2.857-1.234-4.255-2.031c-1.4-0.797-2.559-1.813-3.478-3.048
		c-0.92-1.235-1.378-2.769-1.378-4.602c0-1.913,0.488-3.616,1.468-5.109c0.979-1.494,2.378-2.669,4.196-3.526
		c1.817-0.856,3.966-1.285,6.444-1.285c2.316,0,4.405,0.399,6.263,1.195c1.858,0.798,3.447,1.733,4.766,2.809l-3.597,4.781
		c-1.159-0.837-2.338-1.524-3.536-2.062s-2.438-0.807-3.717-0.807c-1.678,0-2.917,0.349-3.716,1.046
		c-0.8,0.697-1.199,1.564-1.199,2.6c0,0.877,0.31,1.594,0.929,2.151c0.62,0.559,1.449,1.046,2.488,1.464
		c1.039,0.418,2.158,0.847,3.356,1.285c1.158,0.439,2.298,0.918,3.417,1.435c1.118,0.518,2.138,1.156,3.057,1.913
		s1.648,1.673,2.188,2.748C79.73,59.293,80,60.608,80,62.161c0,1.912-0.49,3.656-1.469,5.229c-0.979,1.574-2.427,2.818-4.345,3.735
		C72.269,72.042,69.909,72.5,67.113,72.5z"/>
</g>
</svg>
