<?xml version="1.0" encoding="utf-8"?>
<!-- Generator: Adobe Illustrator 16.0.0, SVG Export Plug-In . SVG Version: 6.00 Build 0)  -->
<!DOCTYPE svg PUBLIC "-//W3C//DTD SVG 1.1//EN" "http://www.w3.org/Graphics/SVG/1.1/DTD/svg11.dtd">
<svg version="1.1" id="Layer_1" xmlns="http://www.w3.org/2000/svg" xmlns:xlink="http://www.w3.org/1999/xlink" x="0px" y="0px"
	 width="100px" height="100px" viewBox="0 0 100 100" enable-background="new 0 0 100 100" xml:space="preserve">
<path fill="#1B1B1B" d="M89.604,100H10.396C4.663,100,0,95.337,0,89.604V10.397C0,4.664,4.663,0,10.396,0h79.207
	C95.337,0,100,4.664,100,10.397v79.207C100,95.337,95.337,100,89.604,100z M10.396,0.99c-5.187,0-9.406,4.22-9.406,9.407v79.207
	c0,5.188,4.22,9.407,9.406,9.407h79.207c5.188,0,9.407-4.22,9.407-9.407V10.397c0-5.187-4.22-9.407-9.407-9.407H10.396z"/>
<g>
	<path fill="#1B1B1B" d="M32.022,72.5c-2.816,0-5.2-0.627-7.148-1.88c-1.95-1.252-3.574-3.094-4.874-5.522l4.981-3.995
		c0.794,1.645,1.714,2.83,2.763,3.556c1.046,0.725,2.183,1.086,3.411,1.086c1.913,0,3.339-0.625,4.277-1.88
		c0.938-1.253,1.408-3.408,1.408-6.462V28.264h7.148v29.785c0,2.664-0.416,5.081-1.244,7.256c-0.832,2.172-2.131,3.916-3.899,5.228
		C37.075,71.845,34.801,72.5,32.022,72.5z"/>
	<path fill="#1B1B1B" d="M65.649,72.5c-2.743,0-5.363-0.559-7.853-1.675c-2.493-1.115-4.674-2.672-6.551-4.67l4.115-5.345
		c1.443,1.487,3.077,2.683,4.9,3.583c1.823,0.901,3.654,1.351,5.495,1.351c2.273,0,3.999-0.509,5.174-1.528
		c1.172-1.017,1.76-2.348,1.76-3.994c0-1.213-0.274-2.191-0.813-2.938c-0.541-0.742-1.275-1.379-2.193-1.908
		c-0.92-0.528-1.976-1.067-3.169-1.616l-5.47-2.526c-1.297-0.587-2.573-1.37-3.813-2.349c-1.248-0.979-2.28-2.223-3.091-3.73
		c-0.812-1.507-1.218-3.299-1.218-5.375c0-2.35,0.576-4.444,1.734-6.286c1.155-1.841,2.753-3.299,4.793-4.377
		c2.038-1.077,4.355-1.616,6.958-1.616c2.347,0,4.6,0.491,6.766,1.469c2.168,0.979,4.028,2.331,5.579,4.054l-3.682,4.935
		c-1.263-1.175-2.593-2.095-3.98-2.761c-1.388-0.666-2.952-0.999-4.683-0.999c-1.879,0-3.376,0.45-4.493,1.351
		c-1.12,0.901-1.684,2.135-1.684,3.701c0,1.136,0.299,2.076,0.896,2.82c0.597,0.745,1.374,1.361,2.327,1.851
		c0.958,0.49,1.995,0.99,3.114,1.498l5.364,2.409c1.587,0.705,2.986,1.577,4.194,2.614c1.207,1.038,2.156,2.291,2.845,3.76
		C79.656,55.67,80,57.462,80,59.577c0,2.348-0.569,4.503-1.707,6.461c-1.136,1.959-2.779,3.524-4.928,4.699
		C71.218,71.913,68.646,72.5,65.649,72.5z"/>
</g>
</svg>
