<?xml version="1.0" encoding="utf-8"?>
<!-- Generator: Adobe Illustrator 16.0.0, SVG Export Plug-In . SVG Version: 6.00 Build 0)  -->
<!DOCTYPE svg PUBLIC "-//W3C//DTD SVG 1.1//EN" "http://www.w3.org/Graphics/SVG/1.1/DTD/svg11.dtd">
<svg version="1.1" id="Layer_1" xmlns="http://www.w3.org/2000/svg" xmlns:xlink="http://www.w3.org/1999/xlink" x="0px" y="0px"
	 width="100px" height="100px" viewBox="0 0 100 100" enable-background="new 0 0 100 100" xml:space="preserve">
<g>
	<path fill="#1B1B1B" d="M89.604,100H10.396C4.663,100,0,95.337,0,89.604V10.397C0,4.664,4.663,0,10.396,0h79.207
		C95.337,0,100,4.664,100,10.397v79.207C100,95.337,95.337,100,89.604,100z M10.396,0.99c-5.187,0-9.406,4.22-9.406,9.407v79.207
		c0,5.188,4.22,9.407,9.406,9.407h79.207c5.188,0,9.407-4.22,9.407-9.407V10.397c0-5.187-4.22-9.407-9.407-9.407H10.396z"/>
</g>
<g>
	<path fill="#1B1B1B" d="M5,64V36h4.487v11.252h10.126V36h4.454v28h-4.454V51.61H9.487V64H5z"/>
	<path fill="#1B1B1B" d="M35.486,64V40.206h-7.205V36h18.967v4.206h-7.242V64H35.486z"/>
	<path fill="#1B1B1B" d="M51.459,64V36h5.068l4.415,13.678c0.271,0.858,0.544,1.755,0.816,2.69s0.532,1.855,0.781,2.766h0.169
		c0.272-0.91,0.539-1.831,0.8-2.766c0.26-0.935,0.514-1.832,0.769-2.69L68.625,36h5.063v28h-4.111V51.269
		c0-0.883,0.036-1.849,0.102-2.897c0.067-1.049,0.146-2.103,0.236-3.164c0.091-1.061,0.171-2.021,0.242-2.88h-0.139l-2.041,6.517
		l-4.11,12.541h-2.684l-4.11-12.541l-2.01-6.517h-0.134c0.09,0.859,0.175,1.819,0.255,2.88c0.078,1.061,0.151,2.115,0.222,3.164
		c0.068,1.048,0.099,2.014,0.099,2.897V64H51.459z"/>
	<path fill="#1B1B1B" d="M80.08,64V36h4.486v23.794H95V64H80.08z"/>
</g>
</svg>
