<?xml version="1.0" encoding="utf-8"?>
<!-- Generator: Adobe Illustrator 16.0.0, SVG Export Plug-In . SVG Version: 6.00 Build 0)  -->
<!DOCTYPE svg PUBLIC "-//W3C//DTD SVG 1.1//EN" "http://www.w3.org/Graphics/SVG/1.1/DTD/svg11.dtd">
<svg version="1.1" id="Layer_1" xmlns="http://www.w3.org/2000/svg" xmlns:xlink="http://www.w3.org/1999/xlink" x="0px" y="0px"
	 width="100px" height="100px" viewBox="0 0 100 100" enable-background="new 0 0 100 100" xml:space="preserve">
<path fill="#1B1B1B" d="M89.604,100H10.396C4.663,100,0,95.337,0,89.604V10.397C0,4.664,4.663,0,10.396,0h79.207
	C95.337,0,100,4.664,100,10.397v79.207C100,95.337,95.337,100,89.604,100z M10.396,0.99c-5.187,0-9.406,4.22-9.406,9.407v79.207
	c0,5.188,4.22,9.407,9.406,9.407h79.207c5.188,0,9.407-4.22,9.407-9.407V10.397c0-5.187-4.22-9.407-9.407-9.407H10.396z"/>
<g>
	<path fill="#1B1B1B" d="M36.519,30.983L20,72.5h9.187l3.941-11.234h16.963L53.998,72.5h9.527L47.078,30.983H36.519z M35.159,55.478
		l1.773-5.056c0.773-2.21,1.55-4.467,2.329-6.77c0.776-2.303,1.509-4.597,2.197-6.882h0.272c0.777,2.248,1.528,4.533,2.263,6.854
		c0.73,2.323,1.507,4.588,2.328,6.798l1.758,5.056H35.159z"/>
	<rect x="70.132" y="41.321" fill="#1B1B1B" width="8.98" height="31.179"/>
	<path fill="#1B1B1B" d="M78.493,28.652c-1.01-0.768-2.287-1.152-3.841-1.152c-1.642,0-2.946,0.385-3.909,1.152
		c-0.955,0.768-1.439,1.77-1.439,3.005c0,1.274,0.484,2.294,1.439,3.061c0.963,0.769,2.268,1.152,3.909,1.152
		c1.554,0,2.831-0.384,3.841-1.152C79.495,33.952,80,32.932,80,31.658C80,30.422,79.495,29.42,78.493,28.652z"/>
</g>
</svg>
