<?xml version="1.0" encoding="utf-8"?>
<!-- Generator: Adobe Illustrator 16.0.0, SVG Export Plug-In . SVG Version: 6.00 Build 0)  -->
<!DOCTYPE svg PUBLIC "-//W3C//DTD SVG 1.1//EN" "http://www.w3.org/Graphics/SVG/1.1/DTD/svg11.dtd">
<svg version="1.1" id="Layer_1" xmlns="http://www.w3.org/2000/svg" xmlns:xlink="http://www.w3.org/1999/xlink" x="0px" y="0px"
	 width="100px" height="100px" viewBox="0 0 100 100" enable-background="new 0 0 100 100" xml:space="preserve">
<g>
	<polygon fill="#1B1B1B" points="75.523,5.065 75.523,20.456 89.178,20.456 	"/>
	<path fill="#1B1B1B" d="M71.406,24.108V4.999H9.999v90h80V24.108H71.406z M72.85,53.979L47.186,78.367l-0.068,0.068h-0.069
		L46.98,78.5v0.066l-0.069,0.063h-0.068l-0.069,0.066h-0.068l-0.069,0.066l-0.069,0.063H46.5l-0.069,0.064h-0.068l-0.069,0.064
		h-0.068l-0.069,0.063H46.02l-0.068,0.063h-0.137l-0.068,0.063h-0.274l-0.069,0.067H44.51l-0.069-0.067h-0.206l-0.068-0.063H44.03
		l-0.069-0.063h-0.205l-0.069-0.063h-0.068c-0.274-0.135-0.617-0.329-0.891-0.594L27.153,63.492c-1.236-1.17-1.236-3.063,0-4.23
		l2.468-2.354c1.237-1.176,3.227-1.176,4.461,0L44.99,67.219l20.861-19.827c1.231-1.173,3.226-1.173,4.459,0l2.539,2.349
		C74.016,50.913,74.016,52.805,72.85,53.979z"/>
</g>
</svg>
