<?xml version="1.0" encoding="utf-8"?>
<!-- Generator: Adobe Illustrator 16.0.0, SVG Export Plug-In . SVG Version: 6.00 Build 0)  -->
<!DOCTYPE svg PUBLIC "-//W3C//DTD SVG 1.1//EN" "http://www.w3.org/Graphics/SVG/1.1/DTD/svg11.dtd">
<svg version="1.1" id="Layer_1" xmlns="http://www.w3.org/2000/svg" xmlns:xlink="http://www.w3.org/1999/xlink" x="0px" y="0px"
	 width="100px" height="100px" viewBox="0 0 100 100" enable-background="new 0 0 100 100" xml:space="preserve">
<path fill="#003153" d="M82.055,36.326c2.312-1.029,7.961-3.841,10.954-7.819c3.81-5.007,3.538-6.723,3.538-6.723l-13.134,2.4
	l-3.472-2.949l0.953-2.812l12.521-2.606c0,0-5.104-4.253-10.956-5.35c-5.514-1.098-12.59,0.137-15.313,6.104v-0.068
	c0,0-1.361,2.881-1.564,4.802c-0.204,1.853-1.154,5.898-2.928,9.122c-1.496,2.675-3.129,5.762-7.213,9.809l-1.088-1.098
	l-0.479,0.411l-13.88-14.472c-3.673-12.003,14.226-8.711,21.914-7.751C43.262-0.712,23.187,7.861,13.253,28.644
	c-2.45,3.017-7.76,0.617-10.753,6.858c1.702,4.801,9.052,9.535,13.202,11.043c5.242-3.088,4.084-8.711,5.378-12.758
	c3.946-3.293,7.075-2.195,10.819,0.479l14.835,12.141l-0.407,0.412l0.68,0.755c-10.888,9.054-31.305,25.72-33.685,27.641
	c-2.928,2.4-8.032,6.928-2.45,12.688c5.648,5.763,10.955,2.195,12.657,0.479c1.224-1.165,20.073-19.479,32.051-31.002L86.203,92.5
	L97.5,81.525l-33.072-32.51c0.408-0.412,0.748-0.755,0.885-0.823c1.633-1.371,4.287-4.526,11.229-6.584l7.622,0.96L84.3,41.95
	L82.055,36.326z"/>
</svg>
