<?xml version="1.0" encoding="utf-8"?>
<!-- Generator: Adobe Illustrator 16.0.0, SVG Export Plug-In . SVG Version: 6.00 Build 0)  -->
<!DOCTYPE svg PUBLIC "-//W3C//DTD SVG 1.1//EN" "http://www.w3.org/Graphics/SVG/1.1/DTD/svg11.dtd">
<svg version="1.1" id="Layer_1" xmlns="http://www.w3.org/2000/svg" xmlns:xlink="http://www.w3.org/1999/xlink" x="0px" y="0px"
	 width="100px" height="100px" viewBox="0 0 100 100" enable-background="new 0 0 100 100" xml:space="preserve">
<g>
	<path fill="#003153" d="M66.203,5H7.5v90h85V27.148L66.203,5z M67.053,10.871l21.288,17.931H67.053V10.871z M11.384,91.016V8.986
		h51.784v23.803h25.448v58.227H11.384z"/>
	<rect x="20.973" y="78.302" fill="#003153" width="37.775" height="3.987"/>
	<rect x="20.774" y="54.498" fill="#003153" width="58.451" height="3.988"/>
	<rect x="20.774" y="64.506" fill="#003153" width="58.451" height="3.987"/>
	<path fill="#003153" d="M46.991,36.823c1.927-2.118,3.113-4.916,3.113-7.989c0-6.58-5.387-11.933-12.007-11.933
		c-6.622,0-12.007,5.353-12.007,11.933c0,2.907,1.054,5.573,2.798,7.645c-5.517,2.858-7.966,11.442-8.092,11.893l3.736,1.093
		c0.029-0.105,3.012-10.195,8.336-9.906c1.583,0.768,3.354,1.209,5.229,1.209c1.827,0,3.553-0.42,5.104-1.148
		c4.221,0.559,7.326,7.296,8.188,9.931l1.842-0.633l1.842-0.63C54.939,47.877,52.295,39.926,46.991,36.823z M29.973,28.834
		c0-4.382,3.644-7.947,8.124-7.947s8.123,3.565,8.123,7.947c0,4.384-3.643,7.948-8.123,7.948S29.973,33.218,29.973,28.834z"/>
</g>
</svg>
